<svg width="100" height="100" viewBox="0 0 500 500" fill="" xmlns="http://www.w3.org/2000/svg">
<path d="M300 43L165.5 190.5H300V43Z" fill="white"/>
<path d="M475.5 39L317 35L318 188.5L475.5 39Z" fill="white"/>
<path d="M464.5 64.5L402.5 123.5L488.5 71L464.5 64.5Z" fill="white"/>
<path d="M79.5 206H296.5L231 364L79.5 206Z" fill="white"/>
<path d="M226.5 422.5L307 224.5V464L226.5 422.5Z" fill="white"/>
<path d="M110.5 76.5H71.5V191.5H146L179 151.5L110.5 76.5Z" fill="white"/>
<path d="M57.7512 125.245C57.7544 125.802 57.3022 126.254 56.7455 126.251L22.5817 126.055C21.6936 126.05 21.2523 124.976 21.8804 124.348L55.8483 90.3803C56.4763 89.7523 57.5503 90.1936 57.5554 91.0817L57.7512 125.245Z" fill="white"/>
</svg>
